<svg width="48" height="48" viewBox="0 0 48 48" fill="none" xmlns="http://www.w3.org/2000/svg">
<circle cx="24" cy="24" r="24" fill="#606060"/>
<mask id="mask0_2124_954" style="mask-type:alpha" maskUnits="userSpaceOnUse" x="5" y="4" width="40" height="41">
<rect x="5.00024" y="4.99976" width="40" height="40" rx="2" fill="#D9D9D9"/>
</mask>
<g mask="url(#mask0_2124_954)">
<path d="M16.8335 33.8333C16.1892 34.4776 15.1445 34.4776 14.5002 33.8333C13.8558 33.1889 13.8558 32.1443 14.5002 31.4999L25.9193 20.0808C27.1792 18.8209 26.2869 16.6666 24.5051 16.6666H16.6668C15.7464 16.6666 15.0002 15.9204 15.0002 14.9999C15.0002 14.0794 15.7464 13.3333 16.6668 13.3333H33.0002C34.1047 13.3333 35.0002 14.2287 35.0002 15.3333V31.6666C35.0002 32.5871 34.254 33.3333 33.3335 33.3333C32.413 33.3333 31.6668 32.5871 31.6668 31.6666V23.8283C31.6668 22.0465 29.5125 21.1542 28.2526 22.4141L16.8335 33.8333Z" fill="white"/>
</g>
</svg>
