<svg width="32" height="32" viewBox="0 0 32 32" fill="none" xmlns="http://www.w3.org/2000/svg">
<mask id="mask0_2259_375" style="mask-type:alpha" maskUnits="userSpaceOnUse" x="0" y="0" width="32" height="32">
<rect x="0.459961" y="0.609375" width="30.9513" height="30.9513" fill="#D9D9D9"/>
</mask>
<g mask="url(#mask0_2259_375)">
<path d="M15.9359 22.5327C16.3013 22.5327 16.6075 22.4091 16.8547 22.1619C17.1019 21.9147 17.2255 21.6084 17.2255 21.243C17.2255 20.8776 17.1019 20.5713 16.8547 20.3242C16.6075 20.077 16.3013 19.9534 15.9359 19.9534C15.5705 19.9534 15.2642 20.077 15.017 20.3242C14.7698 20.5713 14.6462 20.8776 14.6462 21.243C14.6462 21.6084 14.7698 21.9147 15.017 22.1619C15.2642 22.4091 15.5705 22.5327 15.9359 22.5327ZM14.6462 17.3741H17.2255V9.63627H14.6462V17.3741ZM6.90838 27.6912C6.19908 27.6912 5.59187 27.4387 5.08676 26.9336C4.58166 26.4285 4.3291 25.8212 4.3291 25.1119V7.05699C4.3291 6.34769 4.58166 5.74049 5.08676 5.23538C5.59187 4.73027 6.19908 4.47772 6.90838 4.47772H12.3249C12.6043 3.70393 13.0718 3.08061 13.7273 2.60774C14.3829 2.13487 15.1191 1.89844 15.9359 1.89844C16.7526 1.89844 17.4888 2.13487 18.1444 2.60774C18.7999 3.08061 19.2674 3.70393 19.5468 4.47772H24.9633C25.6726 4.47772 26.2798 4.73027 26.7849 5.23538C27.2901 5.74049 27.5426 6.34769 27.5426 7.05699V25.1119C27.5426 25.8212 27.2901 26.4285 26.7849 26.9336C26.2798 27.4387 25.6726 27.6912 24.9633 27.6912H6.90838ZM6.90838 25.1119H24.9633V7.05699H6.90838V25.1119ZM15.9359 6.08977C16.2153 6.08977 16.4463 5.99842 16.629 5.81572C16.8117 5.63302 16.9031 5.40196 16.9031 5.12254C16.9031 4.84311 16.8117 4.61205 16.629 4.42935C16.4463 4.24666 16.2153 4.15531 15.9359 4.15531C15.6564 4.15531 15.4254 4.24666 15.2427 4.42935C15.06 4.61205 14.9686 4.84311 14.9686 5.12254C14.9686 5.40196 15.06 5.63302 15.2427 5.81572C15.4254 5.99842 15.6564 6.08977 15.9359 6.08977Z" fill="black"/>
</g>
</svg>
