<svg width="46" height="46" viewBox="0 0 46 46" fill="none" xmlns="http://www.w3.org/2000/svg">
<mask id="mask0_2124_1039" style="mask-type:alpha" maskUnits="userSpaceOnUse" x="0" y="0" width="46" height="46">
<rect width="46" height="46" fill="#D9D9D9"/>
</mask>
<g mask="url(#mask0_2124_1039)">
<path d="M9.58333 42.1666C8.52917 42.1666 7.62674 41.7912 6.87604 41.0405C6.12535 40.2899 5.75 39.3874 5.75 38.3333V11.4999C5.75 10.4458 6.12535 9.54332 6.87604 8.79263C7.62674 8.04193 8.52917 7.66659 9.58333 7.66659H11.5V3.83325H15.3333V7.66659H30.6667V3.83325H34.5V7.66659H36.4167C37.4708 7.66659 38.3733 8.04193 39.124 8.79263C39.8747 9.54332 40.25 10.4458 40.25 11.4999V38.3333C40.25 39.3874 39.8747 40.2899 39.124 41.0405C38.3733 41.7912 37.4708 42.1666 36.4167 42.1666H9.58333ZM9.58333 38.3333H36.4167V19.1666H9.58333V38.3333ZM9.58333 15.3333H36.4167V11.4999H9.58333V15.3333Z" fill="white"/>
</g>
</svg>
