<svg width="52" height="51" viewBox="0 0 52 51" fill="none" xmlns="http://www.w3.org/2000/svg">
<mask id="mask0_2124_982" style="mask-type:alpha" maskUnits="userSpaceOnUse" x="0" y="0" width="52" height="51">
<rect y="0.785645" width="52" height="50.1429" fill="#D9D9D9"/>
</mask>
<g mask="url(#mask0_2124_982)">
<path d="M26.0004 32.1248L34.6671 23.7677H17.3337L26.0004 32.1248ZM26.0004 46.7498C23.0032 46.7498 20.1865 46.2014 17.5504 45.1045C14.9143 44.0076 12.6212 42.519 10.6712 40.6387C8.72124 38.7583 7.17749 36.5471 6.03999 34.0052C4.90249 31.4632 4.33374 28.7471 4.33374 25.857C4.33374 22.9668 4.90249 20.2507 6.03999 17.7088C7.17749 15.1668 8.72124 12.9556 10.6712 11.0753C12.6212 9.19491 14.9143 7.7063 17.5504 6.60942C20.1865 5.51255 23.0032 4.96411 26.0004 4.96411C28.9976 4.96411 31.8143 5.51255 34.4504 6.60942C37.0865 7.7063 39.3796 9.19491 41.3296 11.0753C43.2796 12.9556 44.8233 15.1668 45.9608 17.7088C47.0983 20.2507 47.6671 22.9668 47.6671 25.857C47.6671 28.7471 47.0983 31.4632 45.9608 34.0052C44.8233 36.5471 43.2796 38.7583 41.3296 40.6387C39.3796 42.519 37.0865 44.0076 34.4504 45.1045C31.8143 46.2014 28.9976 46.7498 26.0004 46.7498ZM26.0004 42.5713C30.8393 42.5713 34.9379 40.9521 38.2962 37.7137C41.6546 34.4753 43.3337 30.523 43.3337 25.857C43.3337 21.1909 41.6546 17.2387 38.2962 14.0003C34.9379 10.7619 30.8393 9.14268 26.0004 9.14268C21.1615 9.14268 17.0629 10.7619 13.7046 14.0003C10.3462 17.2387 8.66707 21.1909 8.66707 25.857C8.66707 30.523 10.3462 34.4753 13.7046 37.7137C17.0629 40.9521 21.1615 42.5713 26.0004 42.5713Z" fill="#1C1B1F"/>
</g>
</svg>
