<svg width="46" height="46" viewBox="0 0 46 46" fill="none" xmlns="http://www.w3.org/2000/svg">
<mask id="mask0_2124_1045" style="mask-type:alpha" maskUnits="userSpaceOnUse" x="0" y="0" width="46" height="46">
<rect width="46" height="46" fill="#D9D9D9"/>
</mask>
<g mask="url(#mask0_2124_1045)">
<path d="M34.5002 25.3958L38.3335 29.2291V38.3333C38.3335 39.3874 37.9582 40.2898 37.2075 41.0405C36.4568 41.7912 35.5543 42.1666 34.5002 42.1666H7.66683C6.61266 42.1666 5.71023 41.7912 4.95954 41.0405C4.20884 40.2898 3.8335 39.3874 3.8335 38.3333V11.4999C3.8335 10.4458 4.20884 9.54332 4.95954 8.79263C5.71023 8.04193 6.61266 7.66659 7.66683 7.66659H18.2085C17.9529 8.24159 17.7613 8.85652 17.6335 9.51138C17.5057 10.1662 17.4099 10.8291 17.346 11.4999H7.66683V38.3333H34.5002V25.3958ZM36.9918 17.0583L43.1252 23.1916L40.4418 25.8749L34.3085 19.7416C33.6377 20.1249 32.9189 20.4444 32.1522 20.6999C31.3856 20.9555 30.571 21.0833 29.7085 21.0833C27.3127 21.0833 25.2762 20.2447 23.5991 18.5676C21.922 16.8905 21.0835 14.8541 21.0835 12.4583C21.0835 10.0624 21.922 8.02596 23.5991 6.34888C25.2762 4.67179 27.3127 3.83325 29.7085 3.83325C32.1043 3.83325 34.1408 4.67179 35.8179 6.34888C37.495 8.02596 38.3335 10.0624 38.3335 12.4583C38.3335 13.3208 38.2057 14.1353 37.9502 14.902C37.6946 15.6687 37.3752 16.3874 36.9918 17.0583ZM29.7085 17.2499C31.0502 17.2499 32.1842 16.7867 33.1106 15.8603C34.037 14.9339 34.5002 13.7999 34.5002 12.4583C34.5002 11.1166 34.037 9.98256 33.1106 9.05617C32.1842 8.12978 31.0502 7.66659 29.7085 7.66659C28.3668 7.66659 27.2328 8.12978 26.3064 9.05617C25.38 9.98256 24.9168 11.1166 24.9168 12.4583C24.9168 13.7999 25.38 14.9339 26.3064 15.8603C27.2328 16.7867 28.3668 17.2499 29.7085 17.2499ZM7.66683 38.3333V11.4999V24.9166V24.3416V38.3333Z" fill="white"/>
</g>
</svg>
