<svg width="20" height="20" viewBox="0 0 20 20" fill="none" xmlns="http://www.w3.org/2000/svg">
<mask id="mask0_2259_390" style="mask-type:alpha" maskUnits="userSpaceOnUse" x="0" y="0" width="20" height="20">
<rect x="0.342285" y="0.303711" width="19.047" height="19.047" fill="#D9D9D9"/>
</mask>
<g mask="url(#mask0_2259_390)">
<path d="M0.342285 14.5889V13.339C0.342285 12.7702 0.633281 12.3073 1.21527 11.9501C1.79726 11.593 2.56443 11.4144 3.51678 11.4144C3.68873 11.4144 3.85407 11.4177 4.0128 11.4243C4.17152 11.431 4.32363 11.4475 4.46913 11.4739C4.28395 11.7517 4.14507 12.0427 4.05248 12.3469C3.95989 12.6512 3.91359 12.9686 3.91359 13.2993V14.5889H0.342285ZM5.10403 14.5889V13.2993C5.10403 12.876 5.21977 12.4891 5.45124 12.1386C5.68271 11.7881 6.01008 11.4806 6.43335 11.216C6.85662 10.9515 7.36255 10.7531 7.95116 10.6208C8.53976 10.4885 9.17797 10.4224 9.86578 10.4224C10.5668 10.4224 11.2116 10.4885 11.8002 10.6208C12.3888 10.7531 12.8948 10.9515 13.318 11.216C13.7413 11.4806 14.0654 11.7881 14.2902 12.1386C14.5151 12.4891 14.6275 12.876 14.6275 13.2993V14.5889H5.10403ZM15.818 14.5889V13.2993C15.818 12.9554 15.775 12.6313 15.689 12.3271C15.603 12.0229 15.4741 11.7385 15.3021 11.4739C15.4476 11.4475 15.5964 11.431 15.7485 11.4243C15.9006 11.4177 16.056 11.4144 16.2148 11.4144C17.1671 11.4144 17.9343 11.5897 18.5163 11.9402C19.0983 12.2907 19.3893 12.757 19.3893 13.339V14.5889H15.818ZM6.79048 13.0017H12.9609C12.8286 12.7371 12.4616 12.5057 11.8598 12.3073C11.2579 12.1088 10.5933 12.0096 9.86578 12.0096C9.13829 12.0096 8.47363 12.1088 7.87179 12.3073C7.26996 12.5057 6.90952 12.7371 6.79048 13.0017ZM3.51678 10.6208C3.08029 10.6208 2.70662 10.4654 2.39579 10.1545C2.08495 9.84371 1.92953 9.47004 1.92953 9.03355C1.92953 8.58383 2.08495 8.20686 2.39579 7.90264C2.70662 7.59841 3.08029 7.4463 3.51678 7.4463C3.9665 7.4463 4.34347 7.59841 4.6477 7.90264C4.95192 8.20686 5.10403 8.58383 5.10403 9.03355C5.10403 9.47004 4.95192 9.84371 4.6477 10.1545C4.34347 10.4654 3.9665 10.6208 3.51678 10.6208ZM16.2148 10.6208C15.7783 10.6208 15.4046 10.4654 15.0938 10.1545C14.7829 9.84371 14.6275 9.47004 14.6275 9.03355C14.6275 8.58383 14.7829 8.20686 15.0938 7.90264C15.4046 7.59841 15.7783 7.4463 16.2148 7.4463C16.6645 7.4463 17.0415 7.59841 17.3457 7.90264C17.6499 8.20686 17.802 8.58383 17.802 9.03355C17.802 9.47004 17.6499 9.84371 17.3457 10.1545C17.0415 10.4654 16.6645 10.6208 16.2148 10.6208ZM9.86578 9.82717C9.20442 9.82717 8.64227 9.5957 8.17932 9.13275C7.71638 8.66981 7.4849 8.10766 7.4849 7.4463C7.4849 6.77172 7.71638 6.20626 8.17932 5.74993C8.64227 5.2936 9.20442 5.06543 9.86578 5.06543C10.5404 5.06543 11.1058 5.2936 11.5621 5.74993C12.0185 6.20626 12.2466 6.77172 12.2466 7.4463C12.2466 8.10766 12.0185 8.66981 11.5621 9.13275C11.1058 9.5957 10.5404 9.82717 9.86578 9.82717ZM9.86578 8.23993C10.0906 8.23993 10.2791 8.16387 10.4312 8.01176C10.5833 7.85965 10.6594 7.67116 10.6594 7.4463C10.6594 7.22144 10.5833 7.03296 10.4312 6.88085C10.2791 6.72873 10.0906 6.65268 9.86578 6.65268C9.64091 6.65268 9.45243 6.72873 9.30032 6.88085C9.14821 7.03296 9.07215 7.22144 9.07215 7.4463C9.07215 7.67116 9.14821 7.85965 9.30032 8.01176C9.45243 8.16387 9.64091 8.23993 9.86578 8.23993Z" fill="#808080"/>
</g>
</svg>
