<svg width="40" height="40" viewBox="0 0 40 40" fill="none" xmlns="http://www.w3.org/2000/svg">
<mask id="mask0_2124_1063" style="mask-type:alpha" maskUnits="userSpaceOnUse" x="0" y="0" width="40" height="40">
<rect width="40" height="40" fill="#D9D9D9"/>
</mask>
<g mask="url(#mask0_2124_1063)">
<path d="M15.4172 36.6666L14.7505 31.3333C14.3894 31.1944 14.0491 31.0277 13.7297 30.8333C13.4102 30.6388 13.0977 30.4305 12.7922 30.2083L7.83382 32.2916L3.25049 24.3749L7.54215 21.1249C7.51438 20.9305 7.50049 20.743 7.50049 20.5624V19.4374C7.50049 19.2569 7.51438 19.0694 7.54215 18.8749L3.25049 15.6249L7.83382 7.70825L12.7922 9.79158C13.0977 9.56936 13.4172 9.36103 13.7505 9.16658C14.0838 8.97214 14.4172 8.80547 14.7505 8.66659L15.4172 3.33325H24.5838L25.2505 8.66659C25.6116 8.80547 25.9519 8.97214 26.2713 9.16658C26.5908 9.36103 26.9033 9.56936 27.2088 9.79158L32.1672 7.70825L36.7505 15.6249L32.4588 18.8749C32.4866 19.0694 32.5005 19.2569 32.5005 19.4374V20.5624C32.5005 20.743 32.4727 20.9305 32.4172 21.1249L36.7088 24.3749L32.1255 32.2916L27.2088 30.2083C26.9033 30.4305 26.5838 30.6388 26.2505 30.8333C25.9172 31.0277 25.5838 31.1944 25.2505 31.3333L24.5838 36.6666H15.4172ZM18.3338 33.3333H21.6255L22.2088 28.9166C23.0699 28.6944 23.8685 28.368 24.6047 27.9374C25.3408 27.5069 26.0144 26.986 26.6255 26.3749L30.7505 28.0833L32.3755 25.2499L28.7922 22.5416C28.931 22.1527 29.0283 21.743 29.0838 21.3124C29.1394 20.8819 29.1672 20.4444 29.1672 19.9999C29.1672 19.5555 29.1394 19.118 29.0838 18.6874C29.0283 18.2569 28.931 17.8471 28.7922 17.4583L32.3755 14.7499L30.7505 11.9166L26.6255 13.6666C26.0144 13.0277 25.3408 12.493 24.6047 12.0624C23.8685 11.6319 23.0699 11.3055 22.2088 11.0833L21.6672 6.66659H18.3755L17.7922 11.0833C16.931 11.3055 16.1324 11.6319 15.3963 12.0624C14.6602 12.493 13.9866 13.0138 13.3755 13.6249L9.25049 11.9166L7.62549 14.7499L11.2088 17.4166C11.0699 17.8333 10.9727 18.2499 10.9172 18.6666C10.8616 19.0833 10.8338 19.5277 10.8338 19.9999C10.8338 20.4444 10.8616 20.8749 10.9172 21.2916C10.9727 21.7083 11.0699 22.1249 11.2088 22.5416L7.62549 25.2499L9.25049 28.0833L13.3755 26.3333C13.9866 26.9721 14.6602 27.5069 15.3963 27.9374C16.1324 28.368 16.931 28.6944 17.7922 28.9166L18.3338 33.3333ZM20.0838 25.8333C21.6949 25.8333 23.0699 25.2638 24.2088 24.1249C25.3477 22.986 25.9172 21.611 25.9172 19.9999C25.9172 18.3888 25.3477 17.0138 24.2088 15.8749C23.0699 14.736 21.6949 14.1666 20.0838 14.1666C18.4449 14.1666 17.063 14.736 15.938 15.8749C14.813 17.0138 14.2505 18.3888 14.2505 19.9999C14.2505 21.611 14.813 22.986 15.938 24.1249C17.063 25.2638 18.4449 25.8333 20.0838 25.8333Z" fill="white"/>
</g>
</svg>
