<svg width="17" height="17" viewBox="0 0 17 17" fill="none" xmlns="http://www.w3.org/2000/svg">
<mask id="mask0_2259_283" style="mask-type:alpha" maskUnits="userSpaceOnUse" x="0" y="0" width="17" height="17">
<rect width="17" height="17" fill="#D9D9D9"/>
</mask>
<g mask="url(#mask0_2259_283)">
<path d="M4.25016 2.125H12.0418V11.3333L7.0835 16.2917L6.19808 15.4063C6.11544 15.3236 6.04756 15.2115 5.99443 15.0698C5.94131 14.9281 5.91475 14.7924 5.91475 14.6625V14.4146L6.69391 11.3333H2.12516C1.74738 11.3333 1.41683 11.1917 1.1335 10.9083C0.850163 10.625 0.708496 10.2944 0.708496 9.91667V8.5C0.708496 8.41736 0.720302 8.32882 0.743913 8.23438C0.767524 8.13993 0.791135 8.05139 0.814746 7.96875L2.93975 2.975C3.046 2.73889 3.22308 2.53819 3.471 2.37292C3.71891 2.20764 3.97863 2.125 4.25016 2.125ZM10.6252 3.54167H4.25016L2.12516 8.5V9.91667H8.50016L7.54391 13.8125L10.6252 10.7313V3.54167ZM12.0418 11.3333V9.91667H14.1668V3.54167H12.0418V2.125H15.5835V11.3333H12.0418Z" fill="#1C1B1F"/>
</g>
</svg>
