<svg width="18" height="18" viewBox="0 0 18 18" fill="none" xmlns="http://www.w3.org/2000/svg">
<mask id="mask0_2259_280" style="mask-type:alpha" maskUnits="userSpaceOnUse" x="0" y="0" width="18" height="18">
<rect width="17.7412" height="17.7412" fill="#D9D9D9"/>
</mask>
<g mask="url(#mask0_2259_280)">
<path d="M13.306 15.5236H5.1746V5.91378L10.3491 0.739258L11.2731 1.66328C11.3594 1.74952 11.4302 1.86656 11.4857 2.01441C11.5411 2.16225 11.5688 2.30393 11.5688 2.43946V2.69818L10.7557 5.91378H15.5236C15.9179 5.91378 16.2629 6.06162 16.5585 6.35731C16.8542 6.653 17.0021 6.99796 17.0021 7.39221V8.87065C17.0021 8.95689 16.9898 9.04929 16.9651 9.14785C16.9405 9.24642 16.9158 9.33882 16.8912 9.42506L14.6735 14.6365C14.5627 14.8829 14.3779 15.0924 14.1191 15.2649C13.8604 15.4374 13.5894 15.5236 13.306 15.5236ZM6.65304 14.0452H13.306L15.5236 8.87065V7.39221H8.87069L9.86863 3.32652L6.65304 6.54211V14.0452ZM5.1746 5.91378V7.39221H2.95695V14.0452H5.1746V15.5236H1.47852V5.91378H5.1746Z" fill="#1C1B1F"/>
</g>
</svg>
